<?xml version="1.0" standalone="no"?>
<!DOCTYPE svg PUBLIC "-//W3C//DTD SVG 20010904//EN"
 "http://www.w3.org/TR/2001/REC-SVG-20010904/DTD/svg10.dtd">
<svg version="1.0" xmlns="http://www.w3.org/2000/svg"
 width="500.000000pt" height="500.000000pt" viewBox="0 0 500.000000 500.000000"
 preserveAspectRatio="xMidYMid meet">
<metadata>
Created by potrace 1.16, written by Peter Selinger 2001-2019
</metadata>
<g transform="translate(0.000000,500.000000) scale(0.100000,-0.100000)"
fill="#000000" stroke="none">
<path d="M2340 4556 c-169 -25 -376 -81 -495 -135 -83 -38 -254 -142 -339
-208 -139 -106 -294 -273 -403 -434 -52 -76 -163 -278 -163 -295 0 -5 22 32
48 82 56 108 153 251 238 354 59 71 191 197 240 230 12 8 49 35 81 60 103 81
352 201 503 244 110 31 278 57 400 63 448 20 887 -137 1221 -440 189 -170 409
-437 450 -545 6 -15 16 -34 24 -42 24 -27 94 -170 119 -243 41 -120 87 -298
93 -364 l6 -62 -144 -3 c-79 -2 -146 -2 -147 -1 -2 1 -8 37 -13 80 -28 222
-208 579 -411 813 -127 147 -348 300 -553 383 -177 71 -315 97 -526 97 -172 0
-290 -19 -451 -73 -142 -49 -149 -50 -100 -28 61 29 52 45 -10 20 -116 -45
-125 -48 -136 -37 -12 12 -72 -8 -72 -23 0 -12 7 -11 30 1 13 7 21 6 30 -5 10
-12 18 -11 57 6 72 31 64 22 -22 -25 -113 -61 -270 -172 -316 -224 -21 -25
-39 -40 -39 -35 0 6 7 16 16 23 8 8 20 23 26 34 6 12 -17 -6 -51 -39 -60 -59
-62 -60 -88 -45 -55 32 -54 46 12 107 41 38 47 45 18 24 -40 -31 -92 -85 -94
-99 0 -4 -2 -19 -4 -34 l-3 -26 20 20 c23 23 34 18 19 -10 -16 -31 -15 -47 3
-32 8 6 24 10 35 8 12 -2 35 11 58 32 l38 35 -30 -35 c-17 -19 11 3 61 50 195
183 367 274 664 351 118 31 371 38 529 15 140 -21 318 -74 423 -127 126 -62
285 -176 384 -274 221 -219 399 -560 464 -887 l11 -58 143 0 c98 0 148 -4 159
-12 14 -11 -13 -12 -146 -10 -189 3 -167 -8 -269 134 -41 57 -60 95 -73 145
-20 82 -153 354 -196 403 -16 19 -26 25 -20 14 6 -12 8 -24 5 -27 -4 -3 10
-32 29 -64 53 -87 111 -215 153 -338 36 -105 79 -181 148 -257 l25 -28 153 0
c119 -1 158 -4 178 -16 14 -8 17 -13 7 -10 -10 3 -98 6 -195 6 l-177 0 -47 63
c-54 74 -65 96 -109 237 -33 102 -176 407 -186 396 -3 -3 -15 0 -26 6 -19 10
-19 9 2 -21 42 -59 150 -297 197 -434 38 -112 56 -150 96 -202 28 -36 54 -66
59 -66 5 -1 14 -3 19 -4 6 -1 86 -3 178 -4 117 -1 173 -5 185 -13 14 -11 -23
-12 -193 -10 l-211 3 -49 67 c-38 51 -58 91 -82 167 -76 245 -165 429 -268
556 -160 200 -363 338 -593 404 -99 28 -225 46 -233 33 -10 -16 8 -28 41 -28
63 0 259 -57 345 -100 170 -85 261 -159 438 -356 36 -40 90 -130 132 -218 38
-79 130 -341 130 -369 0 -19 77 -138 103 -159 19 -15 47 -18 217 -18 180 0
197 -2 212 -19 15 -18 15 -20 -5 -25 -12 -3 -57 -6 -100 -6 -60 0 -79 3 -83
15 -5 12 -28 15 -116 15 -70 0 -107 -4 -103 -10 3 -6 50 -10 106 -10 61 0 99
-4 99 -10 0 -7 -38 -10 -107 -8 l-107 3 -57 84 c-40 59 -63 107 -79 160 -34
122 -100 300 -138 376 -55 110 -109 183 -247 333 -96 104 -319 236 -459 271
-88 22 -198 35 -176 21 8 -5 32 -10 53 -10 20 0 37 -4 37 -9 0 -5 33 -19 73
-31 243 -74 512 -283 646 -501 71 -115 138 -279 182 -446 36 -136 37 -139 97
-216 l44 -58 223 3 c168 2 225 0 234 -9 9 -10 -38 -13 -233 -13 l-245 0 -39
53 c-54 71 -56 75 -92 217 -37 140 -112 349 -143 395 -45 66 -92 125 -100 125
-5 0 -2 -7 6 -15 25 -24 124 -234 156 -330 17 -49 42 -139 57 -199 33 -140 37
-151 86 -213 l40 -53 234 0 c221 0 235 -1 254 -20 11 -11 17 -20 13 -20 -5 0
-2 -4 5 -9 7 -4 -20 -8 -65 -9 -76 -1 -133 12 -133 29 0 5 -66 9 -147 9 -182
0 -180 -15 2 -28 l130 -9 -140 -1 -140 -1 -41 52 c-68 87 -74 100 -109 248
-54 229 -108 374 -164 439 l-22 25 13 -25 c7 -14 11 -28 10 -32 -1 -4 18 -54
43 -111 29 -68 59 -166 85 -278 48 -208 53 -220 104 -285 49 -62 42 -61 336
-62 113 0 216 -5 230 -11 28 -11 -487 -16 -528 -5 -26 7 -94 102 -110 154 -6
19 -22 94 -37 165 -33 163 -59 252 -85 290 l-20 30 4 -30 c2 -16 16 -69 30
-118 25 -86 43 -170 66 -314 12 -76 27 -110 76 -167 l30 -36 260 -1 c211 -1
266 -5 296 -18 l37 -15 -37 -18 c-42 -20 -137 -24 -148 -7 -5 8 10 10 55 6 33
-2 61 -1 61 4 0 5 -24 9 -54 9 -29 0 -82 3 -117 6 -44 5 -61 3 -54 -4 6 -6 21
-12 35 -15 20 -3 19 -5 -8 -6 -22 -1 -32 -5 -30 -13 3 -9 45 -14 145 -18 78
-3 145 -8 149 -13 4 -4 -61 -7 -144 -7 -84 0 -152 -4 -152 -9 0 -14 55 -21
169 -21 58 0 113 -5 121 -10 10 -7 -32 -9 -137 -6 -127 3 -153 2 -153 -10 0
-11 24 -14 118 -15 178 -2 203 -16 30 -18 -124 -1 -148 -3 -148 -16 0 -13 23
-15 143 -17 l142 -2 -139 -3 c-84 -2 -145 -8 -153 -15 -11 -9 -36 12 -118 95
-58 58 -105 112 -105 121 0 11 -8 13 -33 9 -28 -4 -38 0 -70 33 -52 54 -62 82
-86 234 -28 173 -78 358 -101 370 -9 5 -23 23 -30 40 -7 17 -14 29 -16 27 -2
-2 8 -32 22 -67 35 -88 79 -270 102 -425 21 -146 29 -166 80 -212 28 -25 46
-33 74 -33 21 0 38 -4 38 -10 0 -5 -22 -10 -49 -10 -45 0 -52 4 -89 44 -46 50
-45 45 -68 216 -35 265 -117 505 -235 690 -101 158 -302 314 -461 355 -77 21
-61 -7 25 -40 153 -60 315 -188 404 -320 43 -64 96 -164 108 -205 4 -14 15
-34 25 -45 19 -20 42 -90 33 -98 -2 -3 -17 -1 -33 3 -16 4 -31 6 -33 4 -3 -3
-8 8 -11 23 -4 15 -9 36 -12 46 -4 11 0 17 10 17 27 0 18 35 -35 138 -62 122
-150 231 -244 301 -70 52 -187 115 -235 125 -14 3 -19 3 -12 0 6 -3 12 -12 12
-20 0 -8 10 -14 26 -14 15 0 36 -12 52 -29 15 -16 62 -50 104 -76 78 -47 179
-147 240 -238 48 -71 72 -167 65 -259 -8 -95 -38 -162 -103 -229 l-45 -46 58
-35 c32 -20 77 -57 101 -82 24 -26 48 -44 53 -41 5 4 17 1 26 -4 15 -9 14 -10
-10 -11 l-27 0 23 -37 c44 -71 59 -125 64 -228 4 -73 1 -119 -11 -170 -20 -85
-93 -222 -141 -264 -82 -71 -216 -119 -407 -146 l-48 -6 0 -189 c0 -162 -2
-189 -16 -194 -9 -3 -60 -6 -115 -6 l-99 0 0 190 0 190 -80 0 -80 0 0 -179 c0
-99 -3 -186 -6 -195 -9 -23 -214 -24 -214 -1 0 8 -5 15 -11 15 -9 0 -11 49 -8
178 l4 177 -225 -3 c-227 -3 -270 0 -270 18 0 6 96 10 259 10 l260 0 -6 -187
-5 -188 88 0 c49 0 96 -3 104 -8 13 -6 15 17 12 185 -2 148 0 193 10 199 15
10 133 11 167 2 l24 -6 -6 -184 -6 -183 87 0 c57 0 92 -4 100 -12 10 -10 12
29 10 194 l-3 207 25 4 c14 3 9 3 -10 2 -34 -2 -66 17 -56 34 3 4 56 11 118
14 62 4 143 15 181 25 178 50 294 197 318 402 8 63 8 63 4 -16 -5 -89 -35
-188 -79 -254 -33 -51 -110 -111 -170 -134 -26 -10 -45 -20 -43 -23 12 -12
140 60 182 102 62 62 121 187 135 287 22 156 -31 329 -130 428 -38 38 -137
100 -179 112 -60 18 -85 -54 -36 -106 14 -15 25 -23 26 -19 0 4 4 -1 8 -12 5
-11 12 -20 17 -20 25 -1 53 -26 47 -43 -6 -15 -5 -16 13 -3 18 14 18 14 2 -4
-16 -17 -18 -17 -45 -1 l-28 17 28 -25 c15 -14 23 -26 16 -26 -7 0 -9 -3 -6
-7 4 -3 16 2 27 12 18 16 20 16 20 2 0 -10 -5 -17 -11 -17 -5 0 -8 -4 -5 -8 3
-4 -8 -7 -25 -6 -16 1 -29 -2 -29 -8 0 -5 -4 -7 -9 -3 -5 3 -13 0 -16 -5 -5
-7 -12 -5 -22 7 -14 17 -14 17 -5 -1 5 -10 21 -20 36 -22 16 -2 24 1 20 8 -4
7 2 8 17 3 35 -11 45 -23 30 -37 -10 -11 -11 -10 -6 4 5 13 1 16 -17 13 -38
-5 -58 -16 -51 -29 4 -6 9 -20 10 -31 2 -16 1 -17 -6 -5 -5 8 -8 17 -5 22 6 9
-31 29 -39 21 -4 -3 -5 4 -2 15 2 11 -3 28 -10 39 -13 17 -14 17 -8 -4 6 -25
-5 -30 -27 -11 -13 11 -13 11 -3 -1 8 -10 9 -20 2 -32 -6 -13 -5 -22 4 -30 9
-9 11 -31 6 -85 -13 -136 -92 -236 -216 -274 -60 -18 -90 -20 -243 -18 l-175
3 -3 267 -2 268 25 6 c14 4 94 4 178 2 169 -6 232 -22 297 -77 35 -29 34 -29
-39 7 l-75 37 -183 3 c-180 4 -183 3 -183 -17 0 -20 5 -21 148 -21 87 0 153
-5 162 -11 11 -7 -32 -9 -147 -6 l-162 4 4 -71 c2 -39 4 -89 4 -111 1 -35 3
-38 16 -24 13 13 22 14 50 5 21 -7 35 -17 35 -27 0 -9 6 -22 14 -28 13 -11 14
-5 12 38 -2 28 1 51 5 51 5 0 9 -17 9 -37 l0 -38 80 3 80 4 7 -32 c9 -46 23
-17 23 48 0 31 4 52 11 52 15 0 7 -113 -10 -134 -9 -11 -19 -13 -37 -5 -14 5
-45 9 -69 9 -32 0 -50 6 -63 21 -16 16 -21 17 -25 6 -4 -10 -14 -13 -31 -10
-21 4 -26 10 -24 32 3 23 -1 26 -24 25 -56 -2 -59 -3 -56 -26 2 -19 10 -24 41
-26 23 -2 40 -9 44 -18 5 -13 8 -13 15 -2 7 9 8 8 4 -6 -5 -14 -2 -17 10 -12
12 4 14 1 9 -14 -6 -19 -2 -20 71 -20 94 0 206 31 229 63 8 12 15 43 15 70 0
31 4 46 10 42 13 -8 4 -88 -12 -122 -20 -42 -83 -62 -215 -70 -67 -5 -127 -7
-133 -5 -6 2 -15 14 -20 27 -9 23 -70 53 -70 34 0 -5 6 -9 13 -9 8 0 7 -3 -3
-10 -12 -7 -12 -12 -2 -22 6 -6 12 -17 12 -22 0 -6 -5 -4 -10 4 -8 12 -10 10
-10 -10 0 -15 9 -31 21 -38 12 -7 18 -16 15 -19 -3 -3 -12 0 -21 7 -12 10 -15
10 -15 -4 0 -14 17 -16 148 -14 100 1 119 3 60 5 l-88 4 -45 46 c-25 25 -44
48 -41 50 2 2 21 -14 43 -37 l40 -40 87 0 c182 0 299 78 347 230 7 25 7 25 8
-4 2 -76 -76 -184 -162 -221 -17 -8 -26 -14 -19 -15 22 0 86 37 119 70 18 17
45 57 60 88 69 141 10 269 -157 337 -36 15 -80 19 -222 23 -98 2 -189 1 -203
-2 l-25 -6 -3 -203 -2 -202 -3 206 c-2 168 -5 208 -16 212 -19 8 -24 -8 -38
-119 -6 -52 -15 -94 -20 -94 -4 0 -8 -13 -8 -30 0 -18 -7 -34 -19 -42 -10 -6
-17 -17 -14 -24 6 -15 -13 -28 -22 -14 -4 6 -15 4 -30 -6 -13 -9 -28 -16 -32
-17 -4 -1 -7 -5 -6 -8 3 -10 -32 -7 -46 5 -12 9 -13 8 -6 -4 6 -12 5 -13 -5
-3 -11 10 -11 15 0 28 12 15 15 14 26 -7 l13 -23 -2 22 c-1 24 -22 38 -32 23
-4 -6 -11 -10 -16 -10 -6 0 -7 5 -3 12 4 6 3 8 -4 4 -7 -4 -8 -17 -2 -36 5
-17 6 -30 4 -30 -13 0 -44 22 -44 31 0 6 5 7 10 4 15 -9 12 4 -5 21 -13 14
-15 1 -15 -114 0 -152 9 -142 -131 -142 l-86 0 -26 -102 c-15 -55 -25 -103
-23 -105 2 -3 112 -4 245 -3 236 1 241 0 241 -20 0 -20 -5 -20 -261 -20 l-261
0 5 23 c3 12 17 75 33 139 l27 118 93 0 94 0 0 615 0 615 -128 0 c-140 0 -153
5 -151 55 l2 30 7 -35 7 -35 2 43 c1 30 -2 41 -11 36 -18 -11 -3 172 16 191 8
8 17 15 21 15 3 0 27 21 53 46 58 57 33 46 -42 -19 -31 -27 -56 -56 -56 -65
-1 -15 -2 -15 -11 1 -10 16 -14 13 -45 -30 -105 -145 -202 -349 -239 -503 -8
-36 -18 -111 -22 -168 l-6 -103 54 -54 54 -55 90 -1 c50 0 99 -4 110 -9 13 -6
-20 -9 -91 -9 l-110 -1 -62 61 -62 60 0 77 c0 204 77 451 200 641 38 58 123
150 195 210 43 36 36 34 -35 -11 -106 -67 -251 -299 -325 -522 -38 -112 -51
-185 -61 -327 l-7 -95 34 -40 c62 -72 62 -72 177 -79 171 -10 175 -12 29 -13
l-138 -2 -59 58 -60 58 0 71 c0 95 35 297 72 413 17 52 52 138 79 191 48 96
151 237 195 265 12 9 30 27 40 42 l17 27 -25 -22 c-27 -26 -36 -27 -58 -13
-12 9 -4 21 45 66 l60 56 -58 -45 c-31 -25 -74 -67 -94 -94 -20 -26 -52 -67
-71 -90 -19 -24 -31 -43 -27 -43 4 0 17 12 28 28 39 49 99 112 108 112 19 0 7
-23 -54 -102 -161 -210 -259 -483 -281 -782 -7 -95 -16 -95 -16 1 0 213 60
445 165 639 47 87 61 125 23 64 -47 -78 -108 -212 -142 -314 -28 -83 -42 -149
-59 -287 -22 -184 -42 -244 -32 -96 12 159 46 357 77 445 63 179 181 378 267
452 25 22 41 42 37 49 -9 14 -36 14 -36 1 0 -6 -21 -40 -47 -75 -101 -137
-177 -276 -227 -413 -40 -113 -85 -323 -93 -433 -3 -60 -9 -95 -14 -87 -6 9
-9 4 -9 -15 0 -18 -4 -26 -11 -21 -23 14 20 318 66 478 14 48 25 90 24 94 -1
15 -49 -124 -49 -144 0 -11 -3 -24 -7 -28 -4 -3 -8 -15 -10 -26 -7 -47 -9 -56
-15 -65 -5 -9 -15 -56 -24 -110 -27 -169 -25 -280 7 -470 33 -199 82 -362 145
-488 39 -77 175 -278 184 -272 5 3 23 -13 40 -35 28 -36 30 -40 12 -40 -20 0
-99 103 -201 263 -128 199 -222 567 -224 872 -1 153 -2 149 58 415 3 14 -2 7
-10 -15 -14 -35 -52 -209 -70 -320 -12 -71 -6 -305 11 -399 16 -94 55 -243 81
-305 71 -173 143 -305 236 -433 27 -37 47 -73 45 -79 -9 -26 -163 190 -198
276 -12 30 -27 55 -32 55 -5 0 -6 5 -3 10 3 6 1 10 -5 10 -6 0 -8 5 -5 10 3 6
1 10 -5 10 -6 0 -8 5 -5 10 3 6 1 10 -5 10 -7 0 -10 7 -6 15 3 8 1 15 -5 15
-6 0 -7 5 -4 10 3 6 1 10 -5 10 -6 0 -8 5 -5 10 3 6 1 10 -5 10 -7 0 -10 7 -6
15 3 8 1 15 -4 15 -6 0 -10 11 -10 25 0 14 -5 25 -11 25 -6 0 -9 7 -6 15 4 8
2 17 -3 20 -5 3 -7 12 -3 20 3 8 0 15 -7 15 -7 0 -10 7 -6 15 3 8 0 15 -5 15
-7 0 -9 11 -7 25 3 15 1 22 -5 18 -6 -4 -7 4 -3 21 5 20 4 26 -5 20 -8 -5 -10
2 -7 24 2 17 1 33 -4 34 -5 2 -9 31 -11 65 -1 33 -5 59 -9 57 -4 -3 -9 28 -11
68 -2 40 -3 19 -1 -47 5 -196 50 -367 155 -584 68 -139 106 -202 189 -312 35
-46 52 -76 43 -76 -19 0 -71 68 -65 86 2 8 0 11 -6 8 -5 -4 -15 0 -22 8 -7 8
-9 15 -4 15 5 0 -1 7 -13 15 -14 10 -20 21 -16 32 5 12 3 14 -7 8 -8 -5 -11
-4 -7 2 4 6 0 14 -9 17 -8 3 -12 10 -9 16 3 5 1 10 -5 10 -6 0 -8 5 -5 10 3 6
1 10 -6 10 -7 0 -10 3 -7 6 4 3 -2 14 -13 25 -11 11 -16 25 -12 35 4 12 3 15
-5 10 -8 -5 -10 -1 -5 10 5 13 3 15 -7 9 -9 -5 -11 -4 -6 3 4 7 2 12 -4 12 -6
0 -8 5 -5 10 3 6 1 10 -5 10 -6 0 -8 5 -5 10 3 6 2 10 -4 10 -6 0 -7 7 -4 17
4 11 3 14 -5 9 -8 -5 -10 -1 -5 10 4 12 3 15 -5 10 -8 -5 -10 -1 -5 10 5 12 3
15 -6 9 -10 -6 -11 -2 -6 15 5 15 4 20 -4 16 -7 -5 -8 -1 -4 10 5 12 3 15 -6
9 -10 -5 -11 -2 -7 13 4 11 1 26 -7 34 -7 7 -12 19 -9 26 2 6 -1 12 -7 12 -6
0 -8 7 -5 15 4 8 2 15 -4 15 -6 0 -8 10 -4 22 3 11 1 19 -4 16 -5 -4 -9 4 -10
15 0 12 -8 56 -17 99 -9 42 -20 123 -24 180 -6 81 -9 95 -14 63 -6 -41 -15
176 -13 327 1 100 24 239 35 212 4 -10 8 -31 8 -46 1 -16 5 -28 9 -28 5 0 7
15 5 33 -3 26 -1 28 6 12 8 -15 9 -9 5 25 -3 33 -2 40 5 25 7 -14 10 -15 10
-5 0 8 -3 21 -8 28 -7 11 -10 10 -15 -3 -3 -9 -6 -26 -7 -38 -1 -16 -3 -13
-10 11 -27 94 165 505 302 647 41 43 54 71 17 39 -14 -12 -18 -14 -13 -4 4 8
-3 4 -18 -9 -14 -13 -23 -29 -21 -36 3 -7 1 -16 -5 -20 -6 -3 -11 -1 -11 5 0
12 -17 -4 -65 -60 -16 -19 -21 -27 -9 -17 17 14 21 14 21 2 0 -8 -4 -12 -8 -9
-4 2 -10 0 -14 -6 -3 -6 -22 1 -45 16 l-39 26 32 45 c72 101 63 96 -34 -19
-30 -36 -36 -48 -23 -48 13 0 16 -7 11 -35 l-6 -35 24 28 24 27 -5 -40 c-2
-22 -1 -33 3 -25 9 22 30 40 37 33 3 -3 13 0 21 7 9 8 2 -10 -16 -39 -19 -30
-35 -47 -39 -40 -5 7 -9 5 -13 -6 -4 -9 -3 -13 3 -10 17 10 12 -4 -42 -119
-28 -61 -68 -172 -89 -246 -39 -141 -51 -160 -23 -39 9 39 14 72 11 75 -2 2
-12 -32 -21 -76 -11 -50 -23 -80 -31 -80 -16 0 -25 -23 -24 -58 0 -16 3 -21 6
-12 3 8 15 24 26 34 l20 20 -8 -50 c-4 -27 -9 -102 -11 -168 -1 -65 -5 -121
-9 -124 -3 -3 -3 -55 1 -114 l7 -108 -36 0 c-20 0 -39 5 -42 10 -4 6 -9 44
-12 86 -5 60 -9 74 -20 69 -9 -3 -13 0 -10 7 2 7 14 12 25 10 20 -3 22 1 22
52 0 31 5 56 10 56 6 0 10 -20 10 -45 0 -25 4 -45 9 -45 16 0 24 21 13 32 -8
8 -6 15 4 25 19 20 19 54 -1 47 -8 -4 -31 -3 -50 0 l-36 7 7 77 c4 42 13 91
21 107 l14 30 -4 -27 c-7 -44 11 -33 23 15 6 23 13 48 16 55 2 8 -5 16 -16 19
-13 3 -20 14 -20 28 0 28 38 156 52 172 6 8 -2 7 -21 -3 -37 -18 -51 -12 -52
24 l-1 27 -8 -30 c-7 -28 -8 -29 -9 -5 l-2 25 -9 -23 c-8 -20 -12 -21 -30 -10
-24 15 -22 41 3 46 16 3 17 1 7 -17 -7 -14 -7 -21 0 -21 5 0 10 6 10 14 0 8 5
16 11 18 6 2 -7 12 -29 22 -37 17 -40 21 -32 42 5 13 7 24 5 24 -14 0 -25 -53
-14 -66 6 -8 8 -25 5 -39 -5 -20 -1 -27 23 -40 17 -8 41 -15 56 -15 14 0 25
-4 25 -8 0 -4 -14 -48 -31 -97 -31 -90 -41 -142 -28 -147 8 -3 12 -23 10 -56
0 -13 -5 -21 -10 -17 -6 3 -12 -12 -14 -32 l-4 -38 -1 37 -2 36 -52 4 c-29 2
-55 3 -57 1 -9 -6 9 -15 41 -22 28 -6 33 -11 36 -39 3 -26 8 -32 28 -32 14 0
24 -6 24 -15 0 -11 -10 -13 -52 -8 -29 3 -56 11 -60 17 -4 6 -8 -1 -8 -16 0
-27 1 -28 60 -28 47 0 60 -3 60 -15 0 -12 -14 -15 -62 -17 l-63 -1 65 -7 65
-7 -73 1 c-42 0 -72 -3 -72 -9 0 -6 28 -9 70 -7 l69 4 0 -57 -1 -57 -64 4
c-62 3 -81 -3 -48 -16 9 -3 38 -6 65 -6 40 0 49 -3 49 -17 0 -15 -10 -18 -69
-18 -38 0 -73 3 -77 8 -4 4 0 7 9 7 9 0 17 5 17 10 0 6 -5 10 -10 10 -6 0 -10
17 -8 40 2 42 12 53 20 22 7 -27 38 -24 38 4 0 34 -18 39 -23 7 l-4 -28 -2 28
c-1 20 -6 27 -21 27 -18 0 -20 7 -21 73 -1 51 -3 65 -9 47 -5 -15 -7 13 -5 70
3 83 3 88 -5 35 -12 -87 -12 -316 0 -436 42 -420 189 -800 437 -1129 19 -25
87 -101 151 -170 64 -69 103 -114 88 -100 -16 14 -79 79 -140 146 -124 135
-211 255 -301 421 -34 62 -64 111 -67 108 -3 -3 -3 6 0 20 4 21 1 24 -14 19
-16 -5 -16 -4 -4 5 13 9 13 13 -4 28 -13 12 -16 13 -11 3 4 -8 -6 -1 -22 15
-16 17 -27 37 -24 45 4 12 2 13 -11 2 -13 -11 -18 -7 -31 27 -90 224 -141 630
-119 939 13 172 39 353 67 461 35 138 148 398 234 541 162 270 429 538 684
685 44 25 66 55 30 41 -9 -4 -20 -2 -24 5 -5 8 -12 8 -25 0 -18 -10 -17 -10 4
-11 40 0 19 -25 -24 -28 -37 -3 -38 -2 -19 13 19 15 19 15 -7 4 -28 -12 -29
-29 -2 -29 21 0 12 -24 -10 -28 -9 -2 -24 -1 -33 2 -13 5 -13 9 -2 23 13 15
12 15 -8 2 -14 -8 -18 -16 -11 -20 7 -4 6 -8 -3 -12 -10 -4 -8 -6 4 -6 36 -2
10 -26 -34 -32 -24 -3 -36 -7 -26 -7 9 -1 17 -5 17 -10 0 -14 -37 -30 -50 -22
-7 5 -24 4 -37 -1 -32 -12 -36 -11 -27 3 4 7 3 8 -5 4 -21 -13 -1 -25 31 -19
24 5 30 3 26 -8 -3 -8 -21 -15 -42 -17 -32 -3 -36 -5 -25 -18 18 -22 -5 -35
-53 -32 -20 2 -35 1 -33 -3 6 -8 -64 -41 -74 -34 -5 2 -19 -7 -31 -20 -13 -14
-20 -25 -15 -25 5 0 -2 -11 -14 -24 -21 -23 -20 -22 35 5 58 30 84 36 84 20 0
-16 -33 -36 -54 -33 -16 3 -18 1 -9 -9 9 -9 5 -19 -19 -45 -17 -18 -37 -30
-45 -27 -7 3 -36 -2 -64 -11 -28 -10 -53 -15 -55 -13 -7 7 27 31 49 34 24 4
106 44 113 55 3 5 -18 -1 -46 -12 -64 -25 -72 -25 -40 1 17 14 19 17 5 10 -47
-23 -185 -184 -273 -318 -54 -82 -182 -321 -182 -338 0 -4 7 -2 15 5 8 7 15
17 15 23 0 24 103 219 110 208 12 -20 140 16 140 40 0 10 -29 5 -95 -17 -21
-7 -41 -11 -43 -9 -2 2 5 15 16 29 10 14 21 23 24 21 6 -7 121 24 132 35 19
19 -3 21 -55 4 -30 -9 -60 -21 -66 -27 -7 -5 -13 -6 -13 -2 0 12 35 50 50 53
74 17 113 31 127 45 16 15 11 15 -51 -2 -38 -11 -72 -25 -77 -33 -5 -7 -9 -8
-9 -3 1 25 39 58 71 61 19 1 54 9 77 17 23 8 42 13 42 10 0 -2 -18 -27 -39
-56 -77 -102 -219 -391 -269 -547 -46 -143 -102 -462 -102 -581 0 -46 -12 -56
-91 -72 -56 -11 -64 -16 -67 -37 -2 -15 0 -20 5 -14 4 7 36 15 71 19 41 5 66
13 73 23 8 14 9 12 5 -8 -3 -14 -6 -30 -6 -37 0 -7 -17 -15 -37 -18 -21 -3
-55 -10 -75 -14 -20 -5 -39 -6 -41 -2 -2 3 -2 0 0 -7 1 -8 3 -26 3 -40 0 -16
3 -22 8 -15 4 6 25 14 47 18 22 3 52 9 67 11 24 5 28 2 28 -19 0 -22 -5 -25
-61 -31 -83 -10 -89 -13 -88 -50 1 -17 3 -23 6 -14 2 9 10 15 16 12 7 -2 40
-1 75 4 48 7 62 6 62 -4 0 -7 -6 -16 -12 -20 -10 -7 -86 -21 -133 -26 -6 -1
-9 -16 -7 -34 4 -29 6 -32 19 -19 9 9 34 15 63 15 27 0 55 3 64 6 11 4 16 1
16 -10 0 -20 -28 -31 -102 -40 -55 -7 -57 -8 -53 -34 7 -37 25 -181 25 -193 0
-6 9 -7 22 -3 12 4 48 10 80 14 52 6 58 4 58 -12 0 -19 -15 -24 -93 -31 -26
-3 -50 -6 -52 -8 -2 -2 0 -20 5 -39 4 -19 8 -28 9 -19 1 22 139 38 152 17 13
-20 -1 -26 -73 -30 -37 -2 -69 -6 -72 -9 -3 -3 -3 -14 0 -25 5 -19 12 -20 85
-16 66 4 79 2 79 -11 0 -11 -18 -17 -67 -23 -38 -4 -71 -7 -74 -6 -3 0 -1 -14
5 -33 6 -19 13 -30 16 -25 3 4 38 12 78 15 63 7 72 6 72 -9 0 -12 -10 -16 -44
-16 -24 0 -57 -3 -74 -6 l-30 -6 18 -54 c21 -60 39 -95 40 -76 0 14 140 18
140 3 0 -4 -30 -11 -66 -14 -36 -2 -68 -7 -70 -10 -6 -6 68 -154 92 -183 9
-11 13 -13 9 -6 -5 9 12 12 70 12 48 0 74 -4 70 -10 -3 -5 -32 -10 -64 -10
-65 0 -74 -5 -60 -31 8 -16 23 -19 87 -21 59 -1 65 -3 27 -5 -27 -3 -54 -8
-60 -13 -7 -6 -17 -5 -25 3 -32 29 68 -124 128 -197 l41 -49 73 2 c40 1 71 0
68 -3 -3 -2 -33 -6 -68 -7 -34 -1 -62 -5 -62 -7 0 -11 167 -178 235 -236 163
-138 421 -286 649 -370 195 -73 332 -104 533 -121 322 -27 546 7 836 126 406
166 702 415 927 778 28 45 48 87 44 93 -4 6 -3 8 3 5 13 -8 44 48 37 67 -3 9
-10 13 -15 10 -5 -3 -6 2 -3 11 6 14 7 14 18 0 10 -14 15 -9 34 31 13 25 21
48 19 50 -2 2 -12 -14 -22 -36 -10 -22 -22 -37 -27 -34 -5 3 -4 12 3 20 10 12
9 17 -1 27 -10 9 -11 9 -6 0 7 -12 -24 -65 -54 -91 -8 -7 -9 -11 -2 -7 21 11
13 -3 -21 -37 -48 -48 -79 -96 -71 -109 4 -7 3 -9 -3 -6 -6 4 -19 -10 -29 -30
-10 -20 -26 -44 -34 -53 -8 -9 -56 -63 -106 -121 -130 -150 -300 -289 -460
-377 -142 -78 -281 -135 -389 -159 -38 -8 -97 -21 -130 -29 -33 -7 -112 -18
-176 -25 -195 -20 -466 16 -689 90 -96 33 -313 132 -324 149 -3 6 43 -14 103
-43 144 -71 307 -127 461 -156 106 -20 155 -24 325 -24 181 1 212 3 330 29
161 34 286 80 435 158 224 118 362 232 555 463 37 44 69 87 73 95 3 8 27 47
52 85 150 224 277 550 327 840 27 155 24 480 -6 648 -93 530 -343 988 -721
1320 -105 91 -122 104 -251 185 -173 110 -389 192 -614 233 -144 26 -379 33
-505 15z m-570 -1152 c0 -3 -26 -47 -57 -97 -108 -174 -158 -307 -189 -496
l-15 -94 27 -39 c50 -72 77 -88 152 -89 104 -1 123 -17 22 -18 -95 -1 -111 6
-173 75 -36 40 -37 44 -37 118 0 133 42 294 114 437 53 105 156 239 156 203z
m-69 -217 c-79 -154 -117 -263 -135 -387 -15 -108 -29 -80 -15 31 16 130 27
175 60 255 42 101 142 254 156 240 2 -1 -28 -64 -66 -139z m50 11 c-11 -24
-31 -70 -46 -103 -42 -91 -85 -224 -91 -281 -6 -48 -5 -52 38 -105 24 -30 55
-60 69 -66 15 -8 66 -12 139 -12 69 0 107 4 95 8 -11 5 -23 7 -27 4 -5 -2 -8
0 -8 4 0 5 -12 10 -27 11 -16 1 -30 7 -31 12 -2 6 -8 8 -13 4 -5 -3 -9 0 -9 5
0 6 -21 11 -49 11 -47 0 -51 3 -101 57 l-52 57 7 55 c10 93 82 280 100 263 5
-4 6 -2 3 3 -3 6 4 19 14 30 20 20 20 20 13 -5 -4 -14 -21 -56 -37 -94 -46
-105 -80 -233 -69 -254 5 -9 27 -34 50 -56 l40 -39 120 2 c78 1 121 -2 121 -9
0 -5 7 -10 15 -10 8 0 15 -4 15 -10 0 -5 -7 -10 -15 -10 -8 0 -15 -9 -15 -20
0 -13 7 -20 20 -20 11 0 20 -4 20 -10 0 -5 -4 -10 -10 -10 -14 0 -12 -27 3
-33 6 -3 -16 -6 -50 -6 -44 -1 -63 3 -63 12 0 8 -4 7 -10 -3 -9 -13 -10 -13
-10 0 0 13 -1 13 -10 0 -6 -9 -10 -10 -10 -3 0 7 -10 10 -25 7 -17 -3 -25 0
-25 10 0 12 17 16 73 19 44 2 21 4 -60 5 l-132 2 -45 48 c-89 94 -86 86 -71
188 13 87 60 234 74 234 4 0 8 6 8 13 0 18 73 137 84 137 5 0 0 -19 -10 -42z
m56 -95 c-24 -47 -87 -221 -87 -240 0 -6 10 -21 23 -34 12 -14 30 -37 40 -52
14 -21 25 -27 54 -27 l37 0 -45 48 c-78 81 -82 92 -63 164 15 59 52 145 54
123 0 -5 12 9 26 33 46 77 42 44 -7 -53 -26 -52 -50 -113 -54 -135 -6 -36 -3
-44 47 -109 l53 -70 55 -1 c117 -4 103 -18 -18 -19 l-123 -1 -47 51 c-26 28
-51 58 -56 66 -11 19 12 126 25 118 5 -3 6 0 3 8 -11 29 86 201 103 183 3 -2
-7 -26 -20 -53z m1747 -377 c13 -48 9 -54 -31 -45 -23 5 -42 4 -47 -1 -7 -7 5
-10 31 -10 28 0 43 -5 47 -16 11 -28 -4 -34 -70 -31 -35 2 -64 0 -64 -5 0 -14
-18 -9 -24 8 -8 22 10 42 42 47 23 3 23 4 -7 6 -25 1 -32 5 -27 17 3 8 2 12
-4 9 -6 -3 -10 3 -10 14 0 24 5 26 90 27 62 1 69 -1 74 -20z m-1524 -306 c8
-5 4 -9 -9 -13 -28 -7 -27 -34 2 -40 l22 -4 -22 -8 c-28 -9 -30 -35 -3 -35 11
0 20 -5 20 -11 0 -8 -18 -10 -57 -6 -32 4 -64 6 -72 7 -9 0 -12 8 -9 25 4 19
1 25 -13 26 -11 1 -25 2 -31 3 -7 0 -14 9 -16 19 -3 13 3 17 22 17 17 0 26 6
26 16 0 12 12 15 64 13 36 -1 70 -5 76 -9z m-240 -20 c0 -6 -51 -10 -132 -10
l-133 0 -72 -66 c-42 -37 -78 -62 -84 -58 -26 16 31 -201 86 -329 19 -43 55
-114 81 -158 37 -63 49 -77 56 -64 7 11 -2 37 -32 91 -60 109 -105 218 -140
339 -34 120 -33 115 -20 115 6 0 10 -7 10 -15 0 -28 25 -14 99 55 l75 70 108
0 c70 0 107 -4 103 -10 -3 -6 -51 -10 -108 -10 l-103 0 -77 -74 c-42 -40 -79
-68 -82 -62 -11 25 9 -65 32 -139 55 -176 137 -320 266 -465 27 -30 53 -64 58
-75 6 -11 0 -8 -11 8 -12 15 -30 27 -40 27 -10 0 -22 5 -25 10 -3 6 -1 10 6
10 6 0 0 11 -15 25 -30 28 -48 33 -40 10 3 -8 -11 1 -32 20 -21 19 -42 35 -46
35 -4 0 -8 5 -8 12 0 7 -22 49 -50 93 -82 135 -150 316 -165 441 -4 33 -11 64
-16 69 -5 7 -1 11 12 12 11 1 19 -5 19 -14 0 -12 6 -11 29 8 16 13 52 43 81
67 l52 42 129 0 c79 0 129 -4 129 -10z m1086 -14 c9 -9 14 -35 14 -71 0 -55
-1 -57 -22 -51 -13 3 -32 6 -43 7 l-20 0 20 9 c11 5 14 9 6 9 -8 1 -11 7 -7
16 3 9 -1 18 -9 21 -8 4 -15 12 -15 20 0 8 -4 14 -10 14 -5 0 -10 -22 -10 -48
0 -48 0 -48 -29 -44 -26 4 -30 9 -34 41 -4 35 -4 35 -7 -9 l-3 -45 -6 48 c-8
60 -25 61 -29 1 -3 -36 -6 -44 -18 -40 -9 3 -22 6 -30 6 -10 0 -15 13 -16 43
l-1 42 -4 -42 c-6 -62 -23 -53 -23 13 l0 55 65 -2 c36 -1 68 1 72 4 9 10 48 8
59 -2 11 -11 64 -3 64 10 0 14 20 11 36 -5z m-1805 -126 c5 -4 23 -58 38 -121
30 -120 29 -129 -17 -129 -26 0 -33 14 -65 133 -14 55 -24 76 -34 73 -17 -7
-17 11 1 21 8 4 16 22 19 38 l4 30 2 -32 c0 -18 6 -33 12 -33 8 0 10 15 7 45
-7 56 4 69 15 19 4 -21 12 -41 18 -44z m627 1 l-87 -6 -48 -48 c-37 -37 -44
-50 -33 -57 7 -5 15 -15 16 -24 10 -67 62 -183 85 -189 17 -5 17 -3 5 22 -8
14 -22 53 -32 86 -10 33 -25 65 -33 71 -11 9 -2 20 47 57 57 44 64 47 119 46
l58 -2 -56 -6 c-56 -6 -123 -44 -136 -78 -8 -21 37 -159 46 -144 5 8 12 3 19
-14 7 -15 8 -25 2 -25 -6 0 -10 5 -10 12 0 6 -3 9 -6 6 -3 -4 17 -50 45 -105
35 -65 43 -88 26 -68 -14 17 -25 34 -25 39 0 4 -7 6 -15 2 -10 -3 -25 10 -45
40 -17 24 -35 42 -40 39 -11 -7 -21 22 -13 42 4 11 3 14 -6 9 -8 -5 -11 -3
-10 5 4 20 -51 179 -62 179 -20 0 -7 21 44 69 l52 51 90 -2 90 -1 -87 -6z
m2112 -11 c0 -5 -22 -10 -49 -10 -49 0 -51 -1 -108 -66 -41 -46 -64 -83 -79
-127 -48 -141 -141 -280 -256 -385 -88 -80 -184 -149 -194 -139 -3 3 20 22 51
42 81 51 238 206 277 273 35 60 84 166 112 242 9 25 42 74 77 113 l61 67 54 0
c30 0 54 -4 54 -10z m-15 -50 c18 -8 18 -9 -5 -9 -17 -1 -42 -18 -76 -53 -76
-79 -106 -123 -157 -230 -25 -54 -52 -98 -58 -98 -7 0 -9 -3 -6 -6 19 -20
-146 -192 -257 -268 -69 -47 -88 -56 -100 -47 -8 7 -16 8 -18 4 -3 -10 -151
-73 -169 -73 -22 0 0 12 83 46 46 19 105 48 131 64 26 16 45 24 42 17 -4 -6 6
2 20 18 15 17 23 23 19 15 -12 -22 65 41 126 103 56 57 132 172 197 296 24 47
65 102 114 152 78 82 81 83 114 69z m62 -36 c5 -13 36 -15 235 -13 163 1 233
-2 241 -10 9 -9 -55 -11 -262 -11 l-274 1 -78 -77 c-78 -78 -147 -183 -133
-206 4 -7 3 -8 -4 -4 -11 7 -17 -6 -13 -27 1 -5 -3 -6 -8 -3 -5 3 -12 -1 -15
-10 -4 -10 -2 -13 7 -9 6 4 3 -1 -8 -10 -11 -9 -21 -20 -21 -25 -1 -6 -2 -15
-3 -20 0 -6 -7 -9 -13 -8 -8 2 -12 -5 -10 -16 2 -10 -1 -15 -7 -12 -5 3 -20
-8 -32 -26 -13 -18 -44 -53 -69 -78 -26 -25 -47 -53 -47 -62 0 -15 2 -15 21 0
24 18 160 178 191 225 12 18 37 61 55 97 22 43 64 96 124 158 l91 92 240 0
c138 0 246 -4 255 -10 10 -6 -70 -10 -236 -10 l-250 0 -97 -99 c-53 -54 -97
-103 -97 -110 0 -25 -62 -141 -72 -135 -7 4 -8 2 -4 -4 4 -7 -5 -24 -21 -39
-15 -14 -21 -23 -13 -19 8 4 6 0 -5 -9 -11 -9 -20 -19 -20 -24 0 -15 -61 -77
-98 -100 -20 -12 -37 -27 -37 -32 0 -5 -6 -9 -13 -9 -7 0 -18 -9 -25 -20 -8
-13 -22 -20 -40 -18 -18 1 -43 -11 -76 -36 -27 -20 -65 -45 -85 -55 -46 -23
-181 -65 -188 -58 -3 3 28 15 69 27 71 21 191 80 204 101 3 6 30 22 60 36 30
14 54 29 54 34 0 4 -12 1 -27 -7 -16 -7 -35 -14 -43 -14 -9 0 -21 -5 -28 -12
-6 -6 -14 -9 -17 -7 -3 3 37 37 87 75 106 79 196 190 273 336 57 108 205 272
236 263 13 -4 19 -1 19 9 0 21 19 21 27 0z m248 -114 l-220 -5 -102 -88 c-76
-67 -106 -100 -121 -135 -46 -107 -185 -292 -219 -292 -23 0 -14 15 38 65 58
57 136 168 166 235 14 31 45 68 99 115 43 39 87 80 99 92 20 22 24 23 250 21
l230 -2 -220 -6z m-59 -52 c-4 -41 -29 -107 -37 -102 -5 3 -6 -3 -2 -12 4 -12
3 -15 -5 -10 -8 5 -10 1 -5 -10 5 -13 3 -15 -7 -9 -9 6 -11 4 -5 -5 7 -12 -64
-175 -73 -166 -2 2 4 18 13 36 9 18 15 34 13 36 -2 2 -14 -17 -26 -42 -12 -25
-17 -42 -11 -38 7 4 10 2 7 -7 -3 -8 -10 -13 -17 -12 -16 4 -40 -49 -32 -71 7
-17 10 -15 28 15 45 75 128 247 159 333 38 105 46 95 9 -13 -25 -75 -102 -232
-154 -317 -17 -27 -38 -62 -47 -79 -45 -80 -271 -320 -349 -371 -16 -10 -50
-34 -74 -52 -25 -18 -99 -60 -165 -93 -270 -131 -617 -170 -886 -99 -78 20
-61 19 75 -6 131 -25 326 -20 480 10 219 44 363 107 508 223 16 13 34 20 39
17 7 -4 8 -2 4 4 -10 17 -31 15 -47 -5 -18 -21 -120 -86 -136 -86 -7 0 -9 -5
-6 -10 4 -6 -1 -8 -11 -4 -11 5 -15 3 -10 -5 5 -8 2 -9 -10 -5 -11 5 -15 3
-10 -5 5 -8 2 -9 -10 -5 -10 4 -15 3 -11 -3 6 -10 -7 -14 -34 -11 -8 2 -10 -2
-5 -10 5 -9 2 -10 -10 -6 -11 4 -15 3 -10 -4 4 -8 -1 -9 -16 -4 -17 5 -21 4
-15 -6 6 -9 3 -11 -9 -6 -11 4 -15 3 -10 -4 4 -8 -1 -9 -16 -4 -16 5 -20 4
-15 -5 5 -9 2 -10 -14 -5 -13 4 -21 2 -21 -5 0 -7 -7 -10 -15 -6 -8 3 -15 1
-15 -5 0 -6 -7 -9 -15 -5 -8 3 -36 -2 -62 -10 -27 -9 -106 -18 -182 -21 -238
-10 -452 26 -635 107 -120 53 -287 155 -349 213 l-52 49 53 -44 c128 -108 363
-224 552 -275 100 -26 115 -28 325 -28 193 1 231 3 307 22 208 53 403 155 554
291 95 85 204 203 204 221 0 13 -25 8 -44 -8 -22 -18 -20 -37 1 -20 29 23 -62
-83 -104 -121 l-38 -35 34 38 c53 56 26 44 -43 -20 -100 -93 -163 -137 -291
-201 -219 -111 -457 -157 -686 -134 -116 12 -322 61 -368 88 -16 9 -18 12 -6
8 175 -60 321 -87 475 -87 219 1 386 41 585 140 164 82 316 203 426 341 76 94
85 103 70 75 -6 -12 -16 -25 -21 -28 -6 -3 -10 -11 -10 -17 0 -6 12 -1 27 13
15 13 21 16 14 6 -8 -9 -11 -20 -8 -23 15 -15 182 282 232 414 16 39 31 72 35
72 5 0 11 11 14 25 8 31 26 33 22 3z m131 -11 c12 -12 -48 -187 -64 -187 -4 0
-21 10 -36 23 l-28 22 25 72 c14 40 27 77 31 82 5 9 61 -1 72 -12z m-3020 -40
c7 3 27 -25 46 -64 50 -100 52 -108 22 -121 -14 -7 -32 -12 -40 -12 -15 0 -57
75 -69 123 -4 15 -11 25 -16 22 -6 -3 -10 -2 -10 3 0 5 9 12 20 15 19 5 19 7
5 40 -18 43 -6 58 15 19 8 -16 20 -27 27 -25z m2813 -14 c-21 -68 -189 -373
-205 -373 -2 0 -5 7 -9 15 -3 8 0 14 6 12 6 -1 12 3 15 10 3 8 -3 11 -16 8
-26 -5 -26 -4 -1 48 16 33 17 37 3 17 -41 -56 -58 -70 -73 -60 -13 8 -12 13 4
42 l18 33 -26 -30 c-14 -16 -25 -34 -26 -38 0 -5 -5 -5 -11 -1 -15 9 -4 59 22
95 12 17 19 32 17 35 -3 2 -18 -15 -33 -38 -100 -153 -222 -267 -388 -365
-157 -94 -258 -131 -401 -147 -78 -9 -48 2 50 19 117 21 224 66 370 155 94 57
136 91 204 163 47 49 108 121 135 160 l50 70 55 1 c55 1 55 1 53 -28 -2 -27
-1 -27 12 -10 10 15 16 16 26 7 9 -9 4 -23 -25 -61 -20 -27 -36 -52 -36 -55 0
-11 34 0 38 13 3 7 0 10 -7 6 -7 -5 -9 -1 -4 9 4 11 8 13 13 6 6 -11 127 232
150 302 8 26 15 36 22 29 7 -7 6 -23 -2 -49z m107 -163 c-8 -22 -9 -35 -1 -48
9 -14 5 -30 -17 -77 -16 -33 -36 -68 -44 -79 -13 -18 -15 -18 -49 3 l-35 22
42 85 c33 68 46 84 60 80 12 -3 22 4 29 20 16 35 28 30 15 -6z m-2839 -45 c7
-14 20 -25 31 -25 12 0 29 -17 48 -47 45 -76 55 -104 42 -119 -15 -18 28 -76
51 -69 11 4 38 -19 83 -71 37 -41 67 -79 67 -83 0 -5 -15 -16 -32 -25 -32 -15
-34 -15 -52 7 -48 58 -97 107 -108 107 -7 0 -5 7 5 18 14 15 14 19 -4 41 -10
13 -19 30 -19 38 0 10 -6 12 -20 8 -15 -5 -26 4 -49 35 -33 45 -55 103 -48
123 2 6 -2 27 -9 46 -16 39 -17 41 -6 41 5 0 14 -11 20 -25z m2388 -151 c19
-9 34 -20 34 -25 0 -5 -24 -34 -53 -64 -29 -30 -51 -55 -49 -55 3 0 -30 -29
-73 -63 -41 -33 -251 -164 -300 -187 -109 -51 -318 -101 -410 -99 -30 1 -30 1
5 9 19 5 71 13 115 19 197 28 347 98 572 269 40 30 71 58 68 62 -6 10 25 51
35 45 11 -7 72 70 62 79 -4 4 -34 -23 -67 -59 -46 -51 -65 -66 -82 -64 -21 4
-17 10 40 76 34 39 64 72 65 72 2 1 19 -6 38 -15z m96 -26 c-7 -7 -18 -13 -24
-13 -6 0 -13 -6 -16 -14 -3 -9 0 -11 9 -6 8 5 6 -1 -5 -13 -10 -12 -23 -19
-28 -16 -5 3 -8 0 -6 -8 6 -28 -225 -218 -360 -296 -167 -97 -409 -165 -575
-161 l-52 2 65 8 c36 5 100 13 144 19 107 13 304 81 401 137 103 59 164 105
245 183 36 35 68 63 72 62 4 -1 28 25 53 58 26 33 50 58 55 55 5 -3 11 -1 15
5 3 5 9 10 13 10 3 0 0 -6 -6 -12z m231 -29 c-13 -22 -14 -32 -6 -40 13 -13 2
-36 -55 -107 -26 -33 -40 -42 -56 -39 -16 4 -26 -3 -44 -30 -16 -24 -20 -39
-13 -47 12 -15 -76 -109 -92 -99 -6 3 -7 1 -3 -5 3 -6 -3 -16 -15 -22 -15 -8
-19 -9 -15 -1 4 7 0 11 -12 11 -25 0 -77 -56 -77 -83 0 -12 -3 -23 -7 -25 -4
-1 -20 -14 -34 -27 -15 -14 -29 -23 -31 -21 -3 2 -13 -3 -23 -12 -22 -18 -48
-24 -55 -12 -7 12 -85 -40 -85 -57 0 -16 -30 -35 -105 -68 -54 -23 -58 -23
-36 -5 l25 21 -30 -7 c-16 -4 -26 -3 -22 1 5 5 -1 14 -12 22 -29 20 -25 32 18
49 20 8 59 25 86 37 45 20 49 20 61 4 11 -16 15 -16 49 -2 41 17 43 23 19 41
-10 7 -16 14 -13 16 103 80 152 109 165 98 12 -10 20 -7 44 13 22 18 27 27 18
36 -17 17 111 144 138 137 29 -8 77 41 63 64 -9 13 -3 29 27 76 52 83 65 96
81 83 9 -7 17 -4 31 14 25 34 38 23 16 -14z m-2337 -298 c11 9 33 -3 104 -57
50 -37 90 -72 90 -76 0 -5 -7 -11 -15 -14 -23 -9 -18 -20 19 -43 31 -20 68
-29 53 -14 -4 3 -2 12 4 19 9 11 26 5 87 -28 43 -22 87 -47 100 -55 l22 -14
-22 -32 c-13 -18 -24 -33 -25 -35 0 -2 -35 15 -77 38 -42 23 -74 45 -71 50 3
4 -2 11 -11 14 -8 3 -12 11 -8 17 5 8 3 9 -5 4 -8 -4 -28 5 -52 24 -21 18 -39
27 -39 20 0 -14 -33 7 -118 75 -42 33 -59 53 -52 60 13 13 13 29 1 21 -10 -5
-61 54 -61 70 0 5 14 -6 31 -23 25 -25 35 -30 45 -21z m646 -337 c51 -15 97
-30 101 -34 5 -4 4 -17 -2 -28 -10 -18 -7 -21 29 -27 22 -4 40 -10 40 -15 0
-4 -19 -4 -42 0 -26 5 -45 4 -49 -1 -7 -13 -135 19 -153 37 -8 7 -16 11 -19 8
-3 -3 -8 8 -12 25 -4 17 -11 31 -15 31 -5 0 -7 7 -4 15 8 20 18 19 126 -11z
m805 -30 c4 -12 14 -14 42 -10 34 6 35 5 17 -9 -11 -8 -28 -15 -37 -15 -10 0
-21 -5 -25 -12 -4 -7 -3 -8 4 -4 8 5 10 2 6 -8 -7 -17 -105 -49 -137 -44 -11
2 -21 11 -23 22 -1 10 -7 23 -13 29 -23 23 -9 36 52 50 83 20 106 20 114 1z
m-492 -32 c54 -7 60 -10 59 -30 0 -19 4 -22 39 -22 36 0 39 2 33 24 -6 23 -3
24 54 31 66 8 80 3 80 -26 0 -18 4 -20 31 -14 22 5 29 4 25 -4 -9 -14 -66 -15
-66 -1 0 6 -10 8 -22 5 -13 -3 -36 -7 -53 -8 -16 -2 -41 -9 -54 -16 -13 -7
-36 -11 -52 -9 -21 3 -29 0 -29 -10 0 -13 -14 -14 -86 -9 -48 3 -88 8 -89 9
-2 2 -6 24 -10 50 l-7 48 43 -6 c24 -3 71 -8 104 -12z"/>
<path d="M2722 4400 c-2 -49 6 -57 63 -64 106 -14 388 -100 405 -125 3 -4 47
-29 98 -55 171 -88 318 -200 472 -363 99 -105 127 -119 36 -18 -25 28 -44 56
-41 63 3 7 0 10 -6 6 -6 -3 -26 9 -45 27 l-34 33 28 30 27 31 -31 -28 -32 -29
-36 37 c-20 19 -36 33 -36 30 0 -4 -20 10 -45 30 -25 21 -42 42 -38 48 3 6 1
7 -6 3 -12 -8 -94 47 -86 57 3 4 3 5 -1 3 -11 -8 -125 55 -118 65 4 7 1 10 -7
7 -15 -5 -63 15 -89 37 -15 13 -193 74 -277 95 -39 10 -43 14 -44 43 -2 30 -2
30 -6 5 -5 -31 -12 -32 -93 -20 -43 7 -45 9 -51 47 l-6 40 -1 -35z"/>
<path d="M2603 4250 c-4 -16 -17 -19 -104 -22 -77 -2 -99 0 -99 10 0 9 -12 12
-37 10 -47 -4 -52 -19 -12 -37 41 -18 237 -10 250 10 8 12 10 12 18 0 5 -8 49
-18 122 -26 110 -12 202 -31 263 -55 19 -7 32 -7 41 0 8 7 17 4 31 -11 26 -30
198 -109 223 -102 14 3 23 -2 33 -20 7 -14 40 -46 73 -72 63 -49 122 -84 111
-66 -4 6 -3 11 2 11 11 0 42 -33 42 -45 0 -4 44 -55 97 -114 122 -134 128
-140 118 -122 -6 10 -4 12 4 7 6 -4 9 -12 5 -17 -3 -6 1 -18 9 -27 24 -28 127
-211 168 -300 45 -97 93 -242 109 -327 6 -33 14 -69 17 -80 l6 -20 8 20 c6 17
8 17 8 3 1 -22 51 -25 51 -4 0 8 -5 16 -10 18 -6 2 -18 30 -26 63 -9 33 -20
66 -26 73 -7 8 -7 12 1 12 17 0 13 32 -6 60 -20 27 -53 113 -58 147 -5 36 -16
63 -25 63 -10 0 -90 149 -90 168 0 20 -31 62 -46 62 -8 0 -14 4 -14 9 0 4 -23
38 -50 75 -28 36 -46 66 -40 66 6 0 2 14 -10 30 -13 18 -30 30 -43 30 -24 0
-141 105 -133 119 9 13 -52 61 -74 58 -28 -3 -150 84 -144 103 5 19 -51 54
-73 46 -9 -4 -51 10 -95 30 -60 29 -77 41 -73 54 4 12 -4 19 -29 27 -22 7 -38
7 -44 1 -14 -14 -174 32 -168 48 7 18 -44 28 -58 11 -9 -12 -25 -13 -88 -4
-53 7 -78 15 -78 24 0 7 -3 13 -7 14 -5 0 -16 2 -27 4 -11 2 -20 -3 -23 -15z"/>
<path d="M2355 4125 c-125 -23 -310 -82 -399 -127 -77 -39 -180 -100 -293
-175 -76 -50 -230 -215 -297 -317 -62 -95 -171 -312 -181 -361 -3 -16 8 5 25
48 19 47 36 75 42 71 7 -4 8 -2 4 4 -11 19 79 186 158 292 46 61 206 218 259
253 202 134 355 212 491 251 49 14 135 33 192 41 205 30 549 -14 736 -95 395
-170 669 -468 824 -897 33 -91 43 -137 26 -117 -5 5 -28 65 -51 133 -78 225
-186 396 -362 572 -93 93 -137 129 -230 184 -201 122 -341 170 -569 196 -235
27 -527 -24 -734 -128 -77 -38 -226 -125 -232 -134 -3 -5 -14 -9 -24 -9 -10 0
-20 -3 -22 -7 -1 -5 -25 -26 -51 -48 -54 -44 -109 -94 -91 -83 20 14 25 -5 7
-26 -18 -21 -18 -21 4 -3 12 11 19 25 17 32 -5 13 123 122 132 112 3 -3 16 5
29 17 36 33 220 133 315 171 95 38 211 70 282 79 l47 6 4 -78 3 -77 2 77 2 77
45 7 c68 10 307 -13 416 -40 166 -41 365 -133 489 -226 113 -85 230 -209 312
-334 100 -152 141 -232 185 -365 27 -83 43 -115 73 -146 21 -22 45 -53 54 -70
l17 -30 -5 50 c-6 69 -59 231 -112 344 -24 51 -44 97 -44 102 0 4 -41 70 -92
146 -115 174 -242 303 -395 404 -183 121 -297 168 -513 215 -108 23 -392 28
-495 9z"/>
<path d="M2438 4003 c-3 -21 -4 -40 -2 -42 6 -6 40 -9 117 -10 l67 -1 0 -45
c0 -33 4 -45 15 -45 20 0 22 130 3 130 -8 0 -6 5 4 11 25 14 214 -16 323 -52
125 -42 277 -117 360 -178 84 -61 215 -188 215 -206 0 -8 5 -17 12 -21 7 -5 9
-2 5 8 -3 9 0 21 6 27 14 14 -104 137 -203 212 -68 51 -272 157 -353 184 -81
26 -218 53 -304 61 l-83 7 0 -43 0 -42 -52 8 c-29 4 -58 7 -64 7 -6 0 -11 7
-10 15 1 8 -5 17 -13 20 -9 3 -11 -1 -6 -17 5 -15 3 -19 -8 -16 -9 4 -12 16
-9 35 2 17 0 30 -6 30 -5 0 -12 -17 -14 -37z"/>
<path d="M2670 3921 c0 -34 4 -61 10 -61 6 0 10 18 10 40 0 28 5 43 16 47 23
9 175 -23 279 -59 170 -58 319 -147 448 -268 61 -56 87 -72 87 -51 0 5 -33 41
-72 81 -176 174 -460 306 -703 327 l-75 6 0 -62z"/>
<path d="M2501 3898 c0 -21 -5 -38 -11 -38 -5 0 -10 -4 -10 -10 0 -5 12 -10
28 -10 37 0 72 -10 72 -21 0 -5 -18 -9 -40 -9 -54 0 -51 -16 5 -25 55 -8 50
-25 -6 -25 -55 0 -47 -24 10 -28 49 -4 45 -22 -5 -22 -24 0 -34 -5 -34 -15 0
-10 11 -15 35 -15 19 0 35 -5 35 -11 0 -7 -14 -10 -35 -7 -24 3 -35 0 -35 -9
0 -8 13 -13 35 -13 19 0 35 -4 35 -10 0 -5 -16 -10 -35 -10 -48 0 -44 -17 5
-25 22 -4 38 -11 35 -15 -3 -5 -21 -6 -40 -3 -28 4 -35 2 -35 -11 0 -11 9 -16
28 -16 15 0 34 -5 42 -10 11 -7 4 -10 -27 -10 -30 0 -43 -4 -43 -14 0 -7 18
-18 43 -23 l42 -11 -42 -1 c-62 -2 -53 -19 12 -23 l55 -3 0 198 c0 201 0 203
-37 198 -7 -1 -13 7 -13 19 0 11 -5 20 -10 20 -6 0 -10 -8 -8 -17 2 -12 -3
-18 -17 -18 -16 0 -21 9 -26 40 l-6 40 -2 -37z"/>
<path d="M2155 3845 c-113 -41 -295 -149 -295 -175 0 -5 29 13 64 39 63 48
153 96 209 112 21 6 33 4 44 -6 12 -13 11 -16 -14 -26 -105 -41 -273 -137
-273 -156 0 -6 11 1 92 54 84 55 212 103 193 73 -3 -5 0 -10 7 -10 7 -1 -19
-16 -59 -34 -39 -19 -93 -49 -119 -68 -27 -18 -53 -36 -58 -40 -6 -4 -8 -10
-5 -13 4 -3 25 10 47 29 52 43 123 78 164 80 54 2 41 -20 -29 -51 -64 -28
-213 -132 -244 -169 -13 -16 -12 -16 6 -5 11 6 51 36 89 65 142 112 211 132
214 62 1 -29 -4 -38 -32 -55 -39 -25 -74 -27 -82 -6 -4 8 -10 15 -14 15 -13 0
-112 -81 -106 -87 2 -3 26 11 52 31 54 42 64 44 64 15 0 -23 8 -23 73 5 l37
16 0 -35 c0 -31 3 -35 25 -35 l25 0 0 188 c0 103 -4 192 -8 198 -5 7 -26 4
-67 -11z"/>
<path d="M2270 3813 c0 -28 1 -28 58 -26 33 0 64 -2 70 -6 7 -4 12 -72 14
-193 2 -125 7 -191 15 -199 7 -7 50 -12 111 -13 85 -1 103 2 121 18 12 11 21
23 21 28 0 4 -45 8 -100 8 l-100 0 0 159 c0 87 -3 179 -6 205 l-7 46 -98 0
-99 0 0 -27z"/>
<path d="M2670 3801 l0 -31 60 0 60 0 0 -178 c0 -127 4 -183 13 -195 8 -11 42
-22 99 -32 50 -9 113 -28 147 -45 58 -29 154 -105 158 -124 1 -5 5 -12 10 -15
17 -12 54 -80 68 -127 8 -27 15 -83 15 -124 1 -75 1 -75 17 -45 9 16 20 55 24
85 8 52 8 51 4 -17 -5 -92 -28 -144 -93 -210 -29 -29 -48 -53 -43 -53 17 0
109 109 132 157 20 41 24 63 24 148 0 92 -3 105 -32 168 -44 92 -138 186 -229
229 -62 29 -138 42 -271 48 -18 0 -18 351 -1 368 9 9 6 12 -14 12 -14 0 -53 3
-87 6 l-61 7 0 -32z"/>
<path d="M2860 3796 c0 -9 22 -21 53 -31 145 -47 341 -168 439 -273 49 -51 68
-61 68 -36 0 9 -30 47 -68 84 -101 101 -256 195 -406 246 -81 28 -86 29 -86
10z"/>
<path d="M2860 3746 c0 -8 24 -23 56 -35 91 -34 185 -81 244 -121 78 -53 188
-158 235 -224 22 -30 46 -56 53 -56 6 0 12 2 12 5 0 11 -95 143 -128 178 -95
99 -254 199 -393 246 -74 25 -79 25 -79 7z"/>
<path d="M2862 3695 c2 -11 28 -27 73 -45 88 -33 125 -53 200 -103 130 -88
251 -232 318 -379 14 -32 27 -58 29 -58 2 0 3 15 2 33 -2 34 -60 154 -112 229
-42 61 -177 186 -245 226 -61 37 -195 97 -240 108 -24 6 -28 4 -25 -11z"/>
<path d="M1828 3415 c4 -24 7 -25 81 -26 42 0 126 -3 188 -5 119 -4 155 3 173
36 11 20 9 20 -218 20 l-229 0 5 -25z"/>
<path d="M2421 3208 c-5 -13 -10 -141 -10 -285 -2 -250 -1 -264 18 -280 41
-34 273 -25 360 15 93 44 176 143 196 237 5 21 -1 15 -20 -22 -30 -59 -120
-135 -183 -154 -20 -6 -97 -13 -169 -16 l-133 -6 0 258 0 257 138 -4 c158 -5
190 -15 262 -88 45 -44 70 -100 70 -151 0 -42 -46 -124 -91 -162 -24 -21 -66
-44 -93 -52 -56 -17 -166 -20 -166 -5 0 11 22 16 98 24 54 5 116 35 125 60 4
9 -5 7 -31 -6 -25 -12 -58 -18 -104 -18 -60 0 -68 -2 -68 -19 0 -25 -29 -35
-49 -17 -10 9 -26 13 -39 9 -25 -6 -30 -33 -7 -33 8 0 15 5 15 10 0 6 8 5 20
-2 19 -12 17 -14 -22 -20 -24 -3 16 -5 87 -4 149 2 192 15 260 82 131 128 104
290 -65 380 -29 15 -63 19 -197 22 l-163 4 -3 -248 -2 -249 -3 253 c-2 244 -8
289 -31 230z"/>
<path d="M2508 3184 c-3 -5 -4 -59 -1 -121 6 -122 7 -123 75 -123 14 0 29 -6
31 -12 4 -10 7 -10 15 0 6 9 31 12 83 10 70 -3 74 -4 83 -31 6 -17 6 -31 0
-36 -5 -6 -45 -7 -91 -4 -75 5 -82 8 -87 29 -4 16 -14 25 -29 26 -77 5 -75 5
-79 -29 -2 -19 -2 -36 1 -38 2 -3 28 -5 58 -5 29 0 53 -4 53 -10 0 -16 127
-12 159 5 31 16 41 33 41 72 0 18 4 24 15 20 8 -4 17 -2 20 2 7 12 -24 23 -46
16 -17 -6 -19 0 -19 58 0 50 -4 66 -16 71 -23 9 -24 8 -24 -14 0 -11 5 -20 10
-20 6 0 10 -18 10 -39 0 -40 -12 -52 -46 -46 -11 2 -54 4 -96 4 l-78 1 0 80
c0 76 -1 80 -22 81 -22 0 -22 1 2 11 14 5 59 8 100 6 64 -4 86 -10 149 -44 68
-37 75 -43 87 -84 8 -25 14 -69 15 -97 1 -29 3 -53 5 -53 6 0 41 75 48 103 14
59 -59 159 -140 193 -38 16 -279 31 -286 18z"/>
</g>
</svg>
